<svg width="24" height="25" viewBox="0 0 24 25" fill="none" xmlns="http://www.w3.org/2000/svg">
<path d="M2.75 2.5C2.75 2.30109 2.67098 2.11032 2.53033 1.96967C2.38968 1.82902 2.19891 1.75 2 1.75C1.80109 1.75 1.61032 1.82902 1.46967 1.96967C1.32902 2.11032 1.25 2.30109 1.25 2.5V12.557C1.25 14.866 1.25 16.675 1.44 18.087C1.634 19.531 2.04 20.671 2.934 21.566C3.829 22.461 4.969 22.866 6.414 23.06C7.825 23.25 9.634 23.25 11.943 23.25H22C22.1989 23.25 22.3897 23.171 22.5303 23.0303C22.671 22.8897 22.75 22.6989 22.75 22.5C22.75 22.3011 22.671 22.1103 22.5303 21.9697C22.3897 21.829 22.1989 21.75 22 21.75H12C9.622 21.75 7.914 21.748 6.614 21.574C5.335 21.402 4.564 21.074 3.994 20.505C3.425 19.935 3.098 19.165 2.926 17.886C2.752 16.586 2.75 14.878 2.75 12.5V2.5Z" fill="#808080"/>
<path d="M19.588 7.96599C19.6513 7.88907 19.6987 7.8003 19.7273 7.70486C19.756 7.60942 19.7653 7.50923 19.7548 7.41014C19.7443 7.31105 19.7141 7.21505 19.6661 7.12775C19.6181 7.04044 19.5531 6.96358 19.4751 6.90166C19.397 6.83974 19.3074 6.79399 19.2114 6.7671C19.1155 6.7402 19.0151 6.73269 18.9163 6.74501C18.8174 6.75733 18.7219 6.78923 18.6355 6.83885C18.5491 6.88847 18.4735 6.95481 18.413 7.03399L15.295 10.96C15.05 11.269 14.889 11.47 14.756 11.616C14.626 11.759 14.566 11.799 14.538 11.814C14.434 11.8694 14.3184 11.8996 14.2006 11.902C14.0829 11.9044 13.9661 11.8791 13.86 11.828C13.832 11.815 13.77 11.778 13.633 11.641C13.495 11.501 13.325 11.306 13.067 11.008L13.05 10.99C12.813 10.716 12.61 10.482 12.43 10.302C12.2461 10.1053 12.0295 9.94192 11.79 9.81899C11.4712 9.66588 11.1208 9.59007 10.7672 9.59772C10.4136 9.60536 10.0669 9.69624 9.75498 9.86299C9.52044 9.99596 9.31068 10.1685 9.13498 10.373C8.96498 10.561 8.77197 10.803 8.54597 11.088L5.41298 15.034C5.34739 15.1106 5.29793 15.1996 5.26754 15.2958C5.23715 15.3919 5.22646 15.4932 5.23611 15.5936C5.24576 15.6939 5.27555 15.7913 5.3237 15.8799C5.37185 15.9685 5.43737 16.0465 5.51634 16.1092C5.59532 16.1719 5.68613 16.218 5.78333 16.2448C5.88054 16.2716 5.98216 16.2785 6.0821 16.2652C6.18205 16.2518 6.27827 16.2184 6.36502 16.167C6.45176 16.1156 6.52725 16.0472 6.58698 15.966L9.70598 12.04C9.95098 11.731 10.112 11.53 10.244 11.384C10.374 11.241 10.434 11.201 10.462 11.186C10.5659 11.1306 10.6815 11.1004 10.7993 11.098C10.9171 11.0956 11.0338 11.1209 11.14 11.172C11.169 11.185 11.231 11.222 11.367 11.359C11.506 11.499 11.675 11.694 11.934 11.992L11.95 12.01C12.188 12.284 12.39 12.518 12.57 12.698C12.755 12.885 12.959 13.06 13.21 13.181C13.5288 13.3341 13.8792 13.4099 14.2327 13.4023C14.5863 13.3946 14.9331 13.3037 15.245 13.137C15.4793 13.0036 15.689 12.8312 15.865 12.627C16.035 12.439 16.228 12.197 16.455 11.912L19.588 7.96599Z" fill="#808080"/>
</svg>
